<svg width="24" height="24" viewBox="0 0 24 24" fill="none" xmlns="http://www.w3.org/2000/svg">
<path d="M8.12012 15.8799L12.0001 11.9999M4 3.99988L15.88 15.8799M14.8 9.19995L20 3.99995M6 15C7.65685 15 9 16.3431 9 18C9 19.6569 7.65685 21 6 21C4.34315 21 3 19.6569 3 18C3 16.3431 4.34315 15 6 15ZM18 15C19.6569 15 21 16.3431 21 18C21 19.6569 19.6569 21 18 21C16.3431 21 15 19.6569 15 18C15 16.3431 16.3431 15 18 15Z" stroke="#D4D4D4" stroke-opacity="0.8" stroke-width="1.8" stroke-linecap="round" stroke-linejoin="round"/>
</svg>
