<svg width="120" height="120" viewBox="0 0 120 120" fill="none" xmlns="http://www.w3.org/2000/svg">
<mask id="mask0_822_391" style="mask-type:alpha" maskUnits="userSpaceOnUse" x="0" y="0" width="120" height="120">
<circle cx="60" cy="60" r="60" fill="#D9D9D9"/>
</mask>
<g mask="url(#mask0_822_391)">
<circle cx="60" cy="60" r="60" fill="#262626"/>
<rect width="88" height="88" transform="translate(16 17)" fill="white"/>
<path d="M104.108 102.91C104.108 104.125 103.123 105.11 101.908 105.11H18.2C16.985 105.11 16 104.125 16 102.91V19.202C16 17.9869 16.985 17.002 18.2 17.002H101.908C103.123 17.002 104.108 17.9869 104.108 19.202V102.91ZM78.0166 66.6133C71.1664 66.6133 65.6125 72.1664 65.6123 79.0166C65.6124 85.8669 71.1663 91.4209 78.0166 91.4209C84.8665 91.4204 90.4199 85.8666 90.4199 79.0166C90.4197 72.1667 84.8664 66.6138 78.0166 66.6133ZM31.9822 30.7812C30.7672 30.7812 29.7822 31.7662 29.7822 32.9812V80.9504C29.7822 82.1654 30.7672 83.1504 31.9822 83.1504H48.1623C49.3773 83.1504 50.3623 82.1654 50.3623 80.9504V53.5613C50.3623 52.3463 51.3473 51.3613 52.5623 51.3613H79.9514C81.1664 51.3613 82.1514 50.3764 82.1514 49.1613V32.9813C82.1514 31.7662 81.1664 30.7812 79.9514 30.7812H31.9822Z" fill="#262626"/>
</g>
</svg>
