<svg width="1362" height="302" viewBox="0 0 1362 302" fill="none" xmlns="http://www.w3.org/2000/svg">
<path d="M0 301.956V0H133.808C199.848 0 243.012 41.2509 243.012 102.302C243.012 167.066 199.848 206.667 133.808 206.667H71.2201V301.956H0ZM129.06 143.966C155.821 143.966 171.792 128.29 171.792 103.54C171.792 79.2017 155.821 64.3514 129.06 64.3514H71.2201V143.966H129.06Z" fill="white"/>
<path d="M283.279 301.956V0H354.499V237.605H498.234V301.956H283.279Z" fill="white"/>
<path d="M556.333 301.956V183.979H514.464L452.309 0H530.003L589.569 183.979H593.886L653.451 0H731.146L668.99 183.979H627.122V301.956H556.333Z" fill="white"/>
<path d="M705.369 301.956L786.086 0H926.799L1007.52 301.956H931.979L918.598 248.33H794.287L780.906 301.956H705.369ZM810.257 184.804H902.628L859.032 12.3753H853.853L810.257 184.804Z" fill="white"/>
<path d="M1024.42 301.956V247.505L1161.68 64.3514H1020.1V0H1253.62V54.4512L1116.79 237.605H1263.98V301.956H1024.42Z" fill="white"/>
<circle cx="1325.98" cy="265.428" r="36.0229" fill="white"/>
</svg>
